inDegrees=no
nColumns=32
nRows=11
DataType=double
version=3
OpenSimVersion=4.5
endheader
time	pelvis_tilt	pelvis_list	pelvis_rotation	pelvis_tz	pelvis_ty	pelvis_tx	hip_flexion_r	hip_adduction_r	hip_rotation_r	knee_angle_r	ankle_angle_r	subtalar_angle_r	mtp_angle_r	hip_flexion_l	hip_adduction_l	hip_rotation_l	knee_angle_l	ankle_angle_l	subtalar_angle_l	mtp_angle_l	lumbar_extension	lumbar_bending	lumbar_rotation	arm_flex_r	arm_add_r	arm_rot_r	elbow_flex_r	arm_flex_l	arm_add_l	arm_rot_l	elbow_flex_l
0.6100000000000001	0.00758574064766608	0.136140646766949	-0.001029556692756719	-0.01155207999999999	0.95746136	0.73820761	0.5393691342124737	-0.1491020895884556	-0.2058491023288551	-0.2400038679438891	0.05770000405082454	0.1036147465040506	0	-0.3635613348317178	0.1628868858982722	-0.3424723561971902	-0.1340508499102679	0.2986570881035465	0.3377091966360625	0	-0.2025782717093465	-0.1157975988176424	0.08847134279484913	-0.07356087980333094	-0.1073645970484688	-0.3081325069670954	0.5531600472031868	0.1609468421298717	-0.1526382291038232	0.05605403168075727	0.8709618220414612
0.6199999999999999	0.008019020429737365	0.1304951069679497	-0.001043494328813489	-0.01055036000000001	0.95695203	0.75265986	0.541621179146613	-0.1424330912216081	-0.1958117401551074	-0.2622685158959905	0.01556073183010678	0.07140374831737603	0	-0.3672621054958395	0.150114245815194	-0.3462496780495019	-0.1559966961957329	0.284212676367931	0.3473991379322313	0	-0.2009718298251064	-0.1062591880543293	0.09449470023815262	-0.07607053236800489	-0.1081052109359247	-0.3116824668721449	0.5530987676459518	0.1522704379649455	-0.150115869844063	0.05260745775021303	0.8659511168474695
0.6300000000000001	0.01118563898593843	0.1240663463538791	-0.00138425763011111	-0.009417189999999992	0.9569185	0.7671222	0.5448837100273966	-0.135956587661424	-0.1821866224477594	-0.2949247934770082	0.01078812916506121	0.0589887063012781	0	-0.3709453076757107	0.1354546747763147	-0.3475011412569032	-0.1829614749827505	0.2568234054070275	0.3474762109738677	0	-0.2029782673145161	-0.09627723589554218	0.1009405366180499	-0.0780035447284478	-0.1090636031677201	-0.3128956832833839	0.552281037258161	0.1441126686846921	-0.1472078153343595	0.05083491165933018	0.8626162698199258
0.6399999999999999	0.0109793821051557	0.113151676848553	-0.001239732232190077	-0.007864179999999998	0.9574282	0.7817632499999999	0.5445743352331162	-0.121856445611423	-0.1575108806738443	-0.3179597145692092	-0.009384510247866141	0.02547055668675885	0	-0.3681768344766719	0.1152408682823205	-0.3491417554661668	-0.2131719806205135	0.2258976767572336	0.3528048516275879	0	-0.2003259508386525	-0.08170911190641982	0.1081277293484669	-0.08092893978240162	-0.109597166202551	-0.3160601476041565	0.5520385043854418	0.1351180199622267	-0.1441688194173872	0.04448456590800093	0.8516578446909574
0.6500000000000001	0.01801687312265317	0.1081065622270291	-0.001944155321845884	-0.006610599999999994	0.95865657	0.79629491	0.5415569028590522	-0.116020330580932	-0.1418071969532212	-0.3543083260672773	-0.01613892380657576	0.01233595643530109	0	-0.3689728006086902	0.1009114313329107	-0.3462838777761947	-0.2501998744379907	0.2000140502038785	0.3507492904501174	0	-0.2078419642982769	-0.07357341999400652	0.1136368995296305	-0.08093572335360535	-0.1104741213714483	-0.3173074701924403	0.5506204318731122	0.1259788768272523	-0.1423197163787278	0.04181215877258463	0.8442774012517779
0.6599999999999999	0.018496235646531	0.0984259342119686	-0.001817773437358768	-0.005055830000000011	0.95994742	0.8113724999999999	0.5383225101764693	-0.1012341603394299	-0.1152550892250658	-0.3792838134794568	-0.02849605649622422	-0.02251195726738461	0	-0.3608796465589382	0.08113464620790385	-0.3433410693977608	-0.2887913809815946	0.1533893371324726	0.3414058954470393	0	-0.2050102316404996	-0.06036853376277461	0.1198962438137608	-0.08347667054443218	-0.1106819372018845	-0.3193760934140327	0.5479697071375262	0.1147956721401828	-0.1399144055308575	0.03301882644895401	0.8313370519572768
0.6700000000000002	0.021701792887235	0.08999040491299914	-0.001950618892932893	-0.003408990000000001	0.96151221	0.8259054899999999	0.5323176884788878	-0.08775798990311183	-0.09452013369961146	-0.4026072443037967	-0.04247638361293803	-0.06493800994801825	0	-0.3460166741508997	0.06075066958824149	-0.3394917966961014	-0.3441437176973533	0.1156698164563198	0.3242380639180974	0	-0.2070777827063325	-0.049331343320927	0.1246558682104885	-0.08203982003468037	-0.1105574278565082	-0.3217229404443501	0.5431919836764554	0.1049812508201691	-0.1370049285778136	0.0214151523973915	0.8209438108658623
0.6799999999999999	0.02054511955886714	0.083104659498048	-0.001705665722605108	-0.001999489999999993	0.96292296	0.84035883	0.5281221274438013	-0.07695995721627603	-0.08023522341554559	-0.4212329076435603	-0.03487052060342093	-0.09660055011095955	0	-0.3221532782494998	0.04264778122866918	-0.3318326470391917	-0.4037972438217268	0.06838993889777345	0.2966286615599568	0	-0.2037608399643875	-0.03962324745894479	0.1282990913549147	-0.08175055352777796	-0.1106253033620524	-0.3239949255906606	0.539896830148491	0.09305001075659838	-0.1356537868243041	0.01240058143964638	0.8076214817783296
0.6899999999999997	0.02186768248290658	0.07703153760269003	-0.001683099329826083	-0.0002214000000000105	0.96444129	0.85432635	0.5208746164835012	-0.06697826546061336	-0.07024307678859761	-0.4410577167246662	-0.01305862676725016	-0.1058459869389732	0	-0.2968426357846586	0.0242603738322928	-0.3250388516967072	-0.4681770145718177	0.005169792478909674	0.2720563109965346	0	-0.2045014159781986	-0.03208418692654778	0.1321037754320416	-0.08075118864459443	-0.1093135725393163	-0.3238469824075494	0.539249546695588	0.08257515440416907	-0.135710817901074	0.006547203182990945	0.7980182662417582
0.7	0.008005277293421511	0.0658929356910552	-0.0005271176572900114	0.001015320000000014	0.96472577	0.86773894	0.5267273360528969	-0.05303394692982914	-0.06817989445641538	-0.4529623338848928	-0.002805867227328546	-0.112030586974288	0	-0.2475298074400355	0.004134647298862724	-0.3054440639210447	-0.5445053240418276	-0.03396761273761228	0.2171422435601784	0	-0.1870487791784554	-0.01712070886086856	0.1368894457262627	-0.08169756358635816	-0.1115842071498516	-0.3238500114264662	0.5366958784979751	0.07199146909342921	-0.1316423313217654	-0.00883754587690677	0.7784850348325502
0.7099999999999997	0.004867408459982163	0.05721280190099643	-0.0002783252261668935	0.002306439999999993	0.96579762	0.88099999	0.5197236447965736	-0.04217638420380047	-0.07095659950087113	-0.4635140061919598	0.02454168076514148	-0.1134331894117267	0	-0.2108809198981434	-0.0136876751946613	-0.2916404899628718	-0.6162194325663799	-0.07144174780038338	0.1805444260975289	0	-0.1826208231901426	-0.006127022321423244	0.1418874960614469	-0.08114721380024868	-0.1132439662247462	-0.3237456391664006	0.5369349395617463	0.06164933368597391	-0.1307251786022007	-0.01679156018429468	0.7665642801835266
